<svg width="64" height="64" viewBox="0 0 64 64" fill="none" xmlns="http://www.w3.org/2000/svg">
<g clip-path="url(#clip0_156_190)">
<path d="M33.8125 25.426C33.8125 17.8762 27.7264 11.756 20.2188 11.756C12.7111 11.756 6.625 17.8762 6.625 25.426V38.1847C6.625 45.7343 12.7111 51.8547 20.2188 51.8547C27.7264 51.8547 33.8125 45.7343 33.8125 38.1847V25.426Z" fill="#D3D3D3"/>
<path d="M33.8125 25.426C33.8125 17.8762 27.7264 11.756 20.2188 11.756C12.7111 11.756 6.625 17.8762 6.625 25.426V38.1847C6.625 45.7343 12.7111 51.8547 20.2188 51.8547C27.7264 51.8547 33.8125 45.7343 33.8125 38.1847V25.426Z" fill="url(#paint0_radial_156_190)"/>
<path d="M33.8125 25.426C33.8125 17.8762 27.7264 11.756 20.2188 11.756C12.7111 11.756 6.625 17.8762 6.625 25.426V38.1847C6.625 45.7343 12.7111 51.8547 20.2188 51.8547C27.7264 51.8547 33.8125 45.7343 33.8125 38.1847V25.426Z" fill="url(#paint1_linear_156_190)"/>
<path d="M33.8125 25.426C33.8125 17.8762 27.7264 11.756 20.2188 11.756C12.7111 11.756 6.625 17.8762 6.625 25.426V38.1847C6.625 45.7343 12.7111 51.8547 20.2188 51.8547C27.7264 51.8547 33.8125 45.7343 33.8125 38.1847V25.426Z" fill="url(#paint2_radial_156_190)"/>
<path d="M33.8125 25.426C33.8125 17.8762 27.7264 11.756 20.2188 11.756C12.7111 11.756 6.625 17.8762 6.625 25.426V38.1847C6.625 45.7343 12.7111 51.8547 20.2188 51.8547C27.7264 51.8547 33.8125 45.7343 33.8125 38.1847V25.426Z" fill="url(#paint3_radial_156_190)"/>
<path d="M33.8125 25.426C33.8125 17.8762 27.7264 11.756 20.2188 11.756C12.7111 11.756 6.625 17.8762 6.625 25.426V38.1847C6.625 45.7343 12.7111 51.8547 20.2188 51.8547C27.7264 51.8547 33.8125 45.7343 33.8125 38.1847V25.426Z" fill="url(#paint4_radial_156_190)"/>
<path d="M33.8125 25.426C33.8125 17.8762 27.7264 11.756 20.2188 11.756C12.7111 11.756 6.625 17.8762 6.625 25.426V38.1847C6.625 45.7343 12.7111 51.8547 20.2188 51.8547C27.7264 51.8547 33.8125 45.7343 33.8125 38.1847V25.426Z" fill="url(#paint5_radial_156_190)"/>
<path d="M33.8125 25.426C33.8125 17.8762 27.7264 11.756 20.2188 11.756C12.7111 11.756 6.625 17.8762 6.625 25.426V38.1847C6.625 45.7343 12.7111 51.8547 20.2188 51.8547C27.7264 51.8547 33.8125 45.7343 33.8125 38.1847V25.426Z" fill="url(#paint6_radial_156_190)"/>
<g filter="url(#filter0_f_156_190)">
<path d="M32.6767 21.8665C32.6767 20.9929 31.9726 20.2847 31.1037 20.2847C30.235 20.2847 29.5308 20.9929 29.5308 21.8665V39.9659C29.5308 40.8394 30.235 41.5476 31.1037 41.5476C31.9726 41.5476 32.6767 40.8394 32.6767 39.9659V21.8665Z" fill="#6F6873"/>
</g>
<path d="M57.3751 25.426C57.3751 17.8762 51.2889 11.756 43.7813 11.756C36.2736 11.756 30.1876 17.8762 30.1876 25.426V38.1847C30.1876 45.7343 36.2736 51.8547 43.7813 51.8547C51.2889 51.8547 57.3751 45.7343 57.3751 38.1847V25.426Z" fill="url(#paint7_radial_156_190)"/>
<path d="M57.3751 25.426C57.3751 17.8762 51.2889 11.756 43.7813 11.756C36.2736 11.756 30.1876 17.8762 30.1876 25.426V38.1847C30.1876 45.7343 36.2736 51.8547 43.7813 51.8547C51.2889 51.8547 57.3751 45.7343 57.3751 38.1847V25.426Z" fill="url(#paint8_linear_156_190)"/>
<path d="M57.3751 25.426C57.3751 17.8762 51.2889 11.756 43.7813 11.756C36.2736 11.756 30.1876 17.8762 30.1876 25.426V38.1847C30.1876 45.7343 36.2736 51.8547 43.7813 51.8547C51.2889 51.8547 57.3751 45.7343 57.3751 38.1847V25.426Z" fill="url(#paint9_radial_156_190)"/>
<path d="M44.6875 27.2487C44.6875 23.7255 41.8472 20.8694 38.3438 20.8694C34.8401 20.8694 32 23.7255 32 27.2487V36.362C32 39.8853 34.8401 42.7413 38.3438 42.7413C41.8472 42.7413 44.6875 39.8853 44.6875 36.362V27.2487Z" fill="url(#paint10_linear_156_190)"/>
<path d="M44.6875 27.2487C44.6875 23.7255 41.8472 20.8694 38.3438 20.8694C34.8401 20.8694 32 23.7255 32 27.2487V36.362C32 39.8853 34.8401 42.7413 38.3438 42.7413C41.8472 42.7413 44.6875 39.8853 44.6875 36.362V27.2487Z" fill="url(#paint11_radial_156_190)"/>
<path d="M21.2383 27.2487C21.2383 23.7255 18.3981 20.8694 14.8945 20.8694C11.391 20.8694 8.55078 23.7255 8.55078 27.2487V36.362C8.55078 39.8853 11.391 42.7413 14.8945 42.7413C18.3981 42.7413 21.2383 39.8853 21.2383 36.362V27.2487Z" fill="url(#paint12_linear_156_190)"/>
<path d="M21.2383 27.2487C21.2383 23.7255 18.3981 20.8694 14.8945 20.8694C11.391 20.8694 8.55078 23.7255 8.55078 27.2487V36.362C8.55078 39.8853 11.391 42.7413 14.8945 42.7413C18.3981 42.7413 21.2383 39.8853 21.2383 36.362V27.2487Z" fill="url(#paint13_radial_156_190)"/>
<path d="M18.8386 27.9067C19.5118 27.3431 19.4807 26.1893 18.769 25.3295C18.0573 24.4698 16.9346 24.2297 16.2614 24.7933C15.5881 25.3568 15.6193 26.5106 16.3309 27.3704C17.0426 28.2302 18.1653 28.4703 18.8386 27.9067Z" fill="url(#paint14_radial_156_190)"/>
<path d="M42.3948 27.9067C43.0681 27.3431 43.0369 26.1893 42.3251 25.3295C41.6136 24.4698 40.4907 24.2297 39.8176 24.7933C39.1443 25.3568 39.1755 26.5106 39.8871 27.3704C40.5988 28.2302 41.7215 28.4703 42.3948 27.9067Z" fill="url(#paint15_radial_156_190)"/>
</g>
<defs>
<filter id="filter0_f_156_190" x="17.9433" y="8.69717" width="26.3209" height="44.4379" filterUnits="userSpaceOnUse" color-interpolation-filters="sRGB">
<feFlood flood-opacity="0" result="BackgroundImageFix"/>
<feBlend mode="normal" in="SourceGraphic" in2="BackgroundImageFix" result="shape"/>
<feGaussianBlur stdDeviation="5.79375" result="effect1_foregroundBlur_156_190"/>
</filter>
<radialGradient id="paint0_radial_156_190" cx="0" cy="0" r="1" gradientTransform="matrix(-7.36299 37.8203 -29.0847 -5.72601 24.8067 21.7806)" gradientUnits="userSpaceOnUse">
<stop stop-color="#FAF7FC"/>
<stop offset="0.456846" stop-color="#D8D0DD"/>
<stop offset="0.707884" stop-color="#D0B3E3"/>
<stop offset="1" stop-color="#CFABE4"/>
</radialGradient>
<linearGradient id="paint1_linear_156_190" x1="0.904304" y1="34.7671" x2="18.3789" y2="37.1222" gradientUnits="userSpaceOnUse">
<stop offset="0.399485" stop-color="#9B969E"/>
<stop offset="1" stop-color="#9A959E" stop-opacity="0"/>
</linearGradient>
<radialGradient id="paint2_radial_156_190" cx="0" cy="0" r="1" gradientTransform="matrix(-25.1659 -26.3955 28.4116 -27.3928 31.7913 40.0811)" gradientUnits="userSpaceOnUse">
<stop offset="0.844296" stop-color="#9A959E" stop-opacity="0"/>
<stop offset="0.948591" stop-color="#949296"/>
</radialGradient>
<radialGradient id="paint3_radial_156_190" cx="0" cy="0" r="1" gradientTransform="matrix(-14.1449 -6.51625 15.7556 -34.5855 37.6239 38.3216)" gradientUnits="userSpaceOnUse">
<stop offset="0.0216587" stop-color="#D1AFE5"/>
<stop offset="1" stop-color="#D1AFE5" stop-opacity="0"/>
</radialGradient>
<radialGradient id="paint4_radial_156_190" cx="0" cy="0" r="1" gradientUnits="userSpaceOnUse" gradientTransform="translate(32.5201 35.8287) rotate(180) scale(10.0618 28.7415)">
<stop stop-color="#ABA5B0"/>
<stop offset="1" stop-color="#ABA5B0" stop-opacity="0"/>
</radialGradient>
<radialGradient id="paint5_radial_156_190" cx="0" cy="0" r="1" gradientTransform="matrix(-10.0618 -9.38502 25.7146 -27.8791 37.0407 39.9347)" gradientUnits="userSpaceOnUse">
<stop stop-color="#B689D0"/>
<stop offset="1" stop-color="#B689D0" stop-opacity="0"/>
</radialGradient>
<radialGradient id="paint6_radial_156_190" cx="0" cy="0" r="1" gradientTransform="matrix(-4.94833 4.03474 -7.6319 -9.46531 29.2046 19.1728)" gradientUnits="userSpaceOnUse">
<stop stop-color="#F3F2F4"/>
<stop offset="1" stop-color="#F3F2F4" stop-opacity="0"/>
</radialGradient>
<radialGradient id="paint7_radial_156_190" cx="0" cy="0" r="1" gradientTransform="matrix(-8.38295 35.0864 -26.9822 -6.5192 49.3886 24.5147)" gradientUnits="userSpaceOnUse">
<stop stop-color="#FAF7FC"/>
<stop offset="0.456846" stop-color="#D8D0DD"/>
<stop offset="0.707884" stop-color="#D0B3E3"/>
<stop offset="1" stop-color="#CFABE4"/>
</radialGradient>
<linearGradient id="paint8_linear_156_190" x1="24.467" y1="34.7671" x2="41.6871" y2="36.3443" gradientUnits="userSpaceOnUse">
<stop offset="0.212017" stop-color="#9B969E"/>
<stop offset="1" stop-color="#9A959E" stop-opacity="0"/>
</linearGradient>
<radialGradient id="paint9_radial_156_190" cx="0" cy="0" r="1" gradientTransform="matrix(-4.94833 4.03474 -7.6319 -9.46531 52.767 19.1728)" gradientUnits="userSpaceOnUse">
<stop stop-color="#F3F2F4"/>
<stop offset="1" stop-color="#F3F2F4" stop-opacity="0"/>
</radialGradient>
<linearGradient id="paint10_linear_156_190" x1="38.3438" y1="20.8694" x2="38.3438" y2="42.7413" gradientUnits="userSpaceOnUse">
<stop offset="0.354167" stop-color="#232224"/>
<stop offset="1" stop-color="#623C86"/>
</linearGradient>
<radialGradient id="paint11_radial_156_190" cx="0" cy="0" r="1" gradientUnits="userSpaceOnUse" gradientTransform="translate(39.9862 30.6663) rotate(90) scale(12.0752 3.94006)">
<stop offset="0.354167" stop-color="#443753"/>
<stop offset="1" stop-color="#433750" stop-opacity="0"/>
</radialGradient>
<linearGradient id="paint12_linear_156_190" x1="14.8945" y1="20.8694" x2="14.8945" y2="42.7413" gradientUnits="userSpaceOnUse">
<stop offset="0.354167" stop-color="#232224"/>
<stop offset="1" stop-color="#623C86"/>
</linearGradient>
<radialGradient id="paint13_radial_156_190" cx="0" cy="0" r="1" gradientUnits="userSpaceOnUse" gradientTransform="translate(16.5371 30.6663) rotate(90) scale(12.0752 3.94006)">
<stop offset="0.354167" stop-color="#443753"/>
<stop offset="1" stop-color="#433750" stop-opacity="0"/>
</radialGradient>
<radialGradient id="paint14_radial_156_190" cx="0" cy="0" r="1" gradientTransform="matrix(0.169907 4.32884 -4.53021 0.179811 16.5938 25.1412)" gradientUnits="userSpaceOnUse">
<stop stop-color="white"/>
<stop offset="1" stop-color="#F4F4F4" stop-opacity="0"/>
</radialGradient>
<radialGradient id="paint15_radial_156_190" cx="0" cy="0" r="1" gradientTransform="matrix(0.169907 4.32884 -4.53019 0.17981 40.15 25.1411)" gradientUnits="userSpaceOnUse">
<stop stop-color="white"/>
<stop offset="1" stop-color="#F4F4F4" stop-opacity="0"/>
</radialGradient>
<clipPath id="clip0_156_190">
<rect width="58" height="47" fill="white" transform="translate(3 8.5)"/>
</clipPath>
</defs>
</svg>
