<svg width="64" height="64" viewBox="0 0 64 64" fill="none" xmlns="http://www.w3.org/2000/svg">
<path d="M14.7156 40V37.08H8.15563V35L14.3956 25.8H17.1756V34.88H18.8756V37.08H17.1756V40H14.7156ZM10.5156 34.88H14.7156V28.98L10.5156 34.88ZM22.0478 37.78L27.3678 27.88L28.9678 28.02L23.6478 37.92L22.0478 37.78ZM25.5078 40.32C24.4545 40.32 23.5478 40.02 22.7878 39.42C22.0278 38.82 21.4411 37.9667 21.0278 36.86C20.6278 35.7533 20.4278 34.44 20.4278 32.92C20.4278 31.3867 20.6278 30.0667 21.0278 28.96C21.4411 27.8533 22.0278 27 22.7878 26.4C23.5478 25.7867 24.4545 25.48 25.5078 25.48C26.5745 25.48 27.4811 25.7867 28.2278 26.4C28.9878 27 29.5678 27.8533 29.9678 28.96C30.3811 30.0667 30.5878 31.3867 30.5878 32.92C30.5878 34.44 30.3811 35.7533 29.9678 36.86C29.5678 37.9667 28.9878 38.82 28.2278 39.42C27.4811 40.02 26.5745 40.32 25.5078 40.32ZM25.5078 38.08C26.0411 38.08 26.4945 37.8867 26.8678 37.5C27.2411 37.1 27.5278 36.5133 27.7278 35.74C27.9278 34.9667 28.0278 34.0267 28.0278 32.92C28.0278 31.7867 27.9278 30.84 27.7278 30.08C27.5278 29.3067 27.2411 28.72 26.8678 28.32C26.4945 27.92 26.0411 27.72 25.5078 27.72C24.9878 27.72 24.5345 27.92 24.1478 28.32C23.7745 28.72 23.4878 29.3067 23.2878 30.08C23.0878 30.84 22.9878 31.7867 22.9878 32.92C22.9878 34.0267 23.0878 34.9667 23.2878 35.74C23.4878 36.5133 23.7745 37.1 24.1478 37.5C24.5345 37.8867 24.9878 38.08 25.5078 38.08ZM38.7 40V37.08H32.14V35L38.38 25.8H41.16V34.88H42.86V37.08H41.16V40H38.7ZM34.5 34.88H38.7V28.98L34.5 34.88ZM49.6322 40.24C48.6322 40.24 47.7922 40.08 47.1122 39.76C46.4322 39.44 45.9055 39.0067 45.5322 38.46C45.1589 37.9133 44.9455 37.3067 44.8922 36.64L47.2522 36.54C47.3589 37.0467 47.6055 37.4533 47.9922 37.76C48.3789 38.0533 48.9322 38.2 49.6522 38.2C50.3189 38.2 50.8189 38.1133 51.1522 37.94C51.4989 37.7533 51.6722 37.48 51.6722 37.12C51.6722 36.8933 51.6122 36.7 51.4922 36.54C51.3855 36.38 51.1655 36.2467 50.8322 36.14C50.4989 36.02 50.0055 35.8933 49.3522 35.76C48.2855 35.5467 47.4455 35.3 46.8322 35.02C46.2189 34.74 45.7789 34.3867 45.5122 33.96C45.2589 33.5333 45.1322 33.0133 45.1322 32.4C45.1322 31.7733 45.2922 31.2133 45.6122 30.72C45.9322 30.2133 46.4055 29.8133 47.0322 29.52C47.6722 29.2267 48.4589 29.08 49.3922 29.08C50.4055 29.08 51.2322 29.2467 51.8722 29.58C52.5122 29.9133 52.9989 30.3467 53.3322 30.88C53.6789 31.4133 53.8922 31.9867 53.9722 32.6L51.5922 32.72C51.5255 32.4133 51.3989 32.14 51.2122 31.9C51.0255 31.66 50.7789 31.4733 50.4722 31.34C50.1655 31.1933 49.8122 31.12 49.4122 31.12C48.7589 31.12 48.2855 31.2467 47.9922 31.5C47.6989 31.7533 47.5522 32.0533 47.5522 32.4C47.5522 32.68 47.6255 32.9133 47.7722 33.1C47.9322 33.2733 48.1922 33.42 48.5522 33.54C48.9122 33.66 49.4122 33.78 50.0522 33.9C51.1055 34.1 51.9255 34.3333 52.5122 34.6C53.0989 34.8667 53.5055 35.2 53.7322 35.6C53.9722 36 54.0922 36.5 54.0922 37.1C54.0922 37.7533 53.9122 38.3133 53.5522 38.78C53.1922 39.2467 52.6789 39.6067 52.0122 39.86C51.3455 40.1133 50.5522 40.24 49.6322 40.24Z" fill="black"/>
</svg>
