<svg width="64" height="64" viewBox="0 0 64 64" fill="none" xmlns="http://www.w3.org/2000/svg">
<path d="M46.628 14.0074C47.1412 14.3097 47.5672 14.7446 47.8631 15.2684C48.1592 15.7922 48.3149 16.3863 48.3145 16.9911V39.6221C48.3143 40.2271 48.1585 40.8214 47.8622 41.3452C47.566 41.8692 47.14 42.3042 46.627 42.607L42.1213 45.2622L31.9985 39.2959L38.186 35.6485V9.03125L46.628 14.0074Z" fill="black"/>
<path d="M25.8145 54.9687V28.3525L32.002 24.7051L21.8792 18.7389L17.3735 21.3941C16.8602 21.6964 16.4339 22.1314 16.1376 22.6554C15.8414 23.1795 15.6856 23.7739 15.686 24.3789V47.01C15.6859 47.6146 15.8417 48.2087 16.1377 48.7324C16.4338 49.2561 16.8596 49.6911 17.3724 49.9937L25.8145 54.9687Z" fill="black"/>
<path d="M32 35.5889C33.9416 35.5889 35.5156 33.9821 35.5156 32C35.5156 30.0179 33.9416 28.4111 32 28.4111C30.0584 28.4111 28.4844 30.0179 28.4844 32C28.4844 33.9821 30.0584 35.5889 32 35.5889Z" fill="black"/>
</svg>
