<svg width="64" height="64" viewBox="0 0 64 64" fill="none" xmlns="http://www.w3.org/2000/svg">
<path d="M8.27272 28.8616L31.5329 41.0233C31.677 41.0993 31.8374 41.139 32.0002 41.139C32.163 41.139 32.3234 41.0993 32.4675 41.0233L55.728 28.8616C55.8921 28.7762 56.0294 28.6473 56.1253 28.489C56.2213 28.3307 56.272 28.149 56.272 27.9639C56.272 27.7786 56.2213 27.597 56.1253 27.4386C56.0294 27.2803 55.8921 27.1515 55.728 27.066L32.4675 14.9043C32.3227 14.8295 32.1621 14.7903 31.9991 14.7903C31.8362 14.7903 31.6756 14.8295 31.5308 14.9043L8.27071 27.066C8.10699 27.1517 7.96987 27.2809 7.87425 27.4392C7.77863 27.5976 7.72819 27.7793 7.72839 27.9644C7.7286 28.1496 7.77946 28.3311 7.87543 28.4893C7.9714 28.6474 8.10881 28.7763 8.27272 28.8616Z" fill="#54616C"/>
<path d="M55.7278 35.1375L51.8786 33.1254L33.4018 42.7849C32.9701 43.0105 32.4905 43.1287 32.0036 43.1294C31.5167 43.1301 31.0368 43.0133 30.6045 42.7889L12.1211 33.1246L8.27242 35.1367C8.10833 35.2221 7.97079 35.351 7.87479 35.5094C7.77879 35.6678 7.72803 35.8495 7.72803 36.0348C7.72803 36.2201 7.77879 36.4018 7.87479 36.5603C7.97079 36.7186 8.10833 36.8475 8.27242 36.9329L31.5325 49.094C31.6766 49.17 31.837 49.2097 31.9998 49.2097C32.1626 49.2097 32.323 49.17 32.4671 49.094L55.7278 36.9329C55.8917 36.8473 56.0291 36.7183 56.125 36.56C56.2209 36.4017 56.2716 36.22 56.2716 36.0348C56.2716 35.8496 56.2209 35.6679 56.125 35.5095C56.0291 35.3512 55.8917 35.2231 55.7278 35.1375Z" fill="#BAC0C4"/>
</svg>
