<svg class="classname" width="80" height="80" viewBox="0 0 80 80" xmlns="http://www.w3.org/2000/svg"><rect width="80" height="80" fill="hsl(104,84.1%,64.1%)"></rect><g fill="hsl(16,40.1%,32.0%)"><rect width="10" height="10" x="0" y="0"></rect><rect width="10" height="10" x="10" y="0"></rect><rect width="10" height="10" x="20" y="0"></rect><rect width="10" height="10" x="30" y="0"></rect><rect width="10" height="10" x="40" y="0"></rect><rect width="10" height="10" x="50" y="0"></rect><rect width="10" height="10" x="60" y="0"></rect><rect width="10" height="10" x="70" y="0"></rect><rect width="10" height="10" x="0" y="10"></rect><rect width="10" height="10" x="70" y="10"></rect><rect width="10" height="10" x="20" y="20"></rect><rect width="10" height="10" x="50" y="20"></rect><rect width="10" height="10" x="0" y="30"></rect><rect width="10" height="10" x="10" y="30"></rect><rect width="10" height="10" x="60" y="30"></rect><rect width="10" height="10" x="70" y="30"></rect><rect width="10" height="10" x="20" y="40"></rect><rect width="10" height="10" x="50" y="40"></rect><rect width="10" height="10" x="10" y="50"></rect><rect width="10" height="10" x="20" y="50"></rect><rect width="10" height="10" x="30" y="50"></rect><rect width="10" height="10" x="40" y="50"></rect><rect width="10" height="10" x="50" y="50"></rect><rect width="10" height="10" x="60" y="50"></rect><rect width="10" height="10" x="0" y="60"></rect><rect width="10" height="10" x="20" y="60"></rect><rect width="10" height="10" x="50" y="60"></rect><rect width="10" height="10" x="70" y="60"></rect><rect width="10" height="10" x="0" y="70"></rect><rect width="10" height="10" x="10" y="70"></rect><rect width="10" height="10" x="20" y="70"></rect><rect width="10" height="10" x="50" y="70"></rect><rect width="10" height="10" x="60" y="70"></rect><rect width="10" height="10" x="70" y="70"></rect></g><g fill="hsl(129,96.3%,58.2%)"><rect width="10" height="10" x="20" y="10"></rect><rect width="10" height="10" x="50" y="10"></rect><rect width="10" height="10" x="0" y="50"></rect><rect width="10" height="10" x="70" y="50"></rect><rect width="10" height="10" x="10" y="60"></rect><rect width="10" height="10" x="30" y="60"></rect><rect width="10" height="10" x="40" y="60"></rect><rect width="10" height="10" x="60" y="60"></rect></g></svg>