<svg viewBox="0 0 32 32" fill="none" xmlns="http://www.w3.org/2000/svg">
  <path
    d="M16 23.3334C16.5304 23.3334 17.0391 23.5441 17.4142 23.9191C17.7892 24.2942 18 24.8029 18 25.3334C18 25.8638 17.7892 26.3725 17.4142 26.7476C17.0391 27.1226 16.5304 27.3334 16 27.3334C15.4695 27.3334 14.9608 27.1226 14.5857 26.7476C14.2107 26.3725 14 25.8638 14 25.3334C14 24.8029 14.2107 24.2942 14.5857 23.9191C14.9608 23.5441 15.4695 23.3334 16 23.3334ZM25.3333 23.3334C25.8637 23.3334 26.3724 23.5441 26.7475 23.9191C27.1226 24.2942 27.3333 24.8029 27.3333 25.3334C27.3333 25.8638 27.1226 26.3725 26.7475 26.7476C26.3724 27.1226 25.8637 27.3334 25.3333 27.3334C24.8029 27.3334 24.2942 27.1226 23.9191 26.7476C23.544 26.3725 23.3333 25.8638 23.3333 25.3334C23.3333 24.8029 23.544 24.2942 23.9191 23.9191C24.2942 23.5441 24.8029 23.3334 25.3333 23.3334ZM6.66663 23.3334C7.19706 23.3334 7.70577 23.5441 8.08084 23.9191C8.45591 24.2942 8.66663 24.8029 8.66663 25.3334C8.66663 25.8638 8.45591 26.3725 8.08084 26.7476C7.70577 27.1226 7.19706 27.3334 6.66663 27.3334C6.13619 27.3334 5.62749 27.1226 5.25241 26.7476C4.87734 26.3725 4.66663 25.8638 4.66663 25.3334C4.66663 24.8029 4.87734 24.2942 5.25241 23.9191C5.62749 23.5441 6.13619 23.3334 6.66663 23.3334ZM16 14C16.5304 14 17.0391 14.2107 17.4142 14.5858C17.7892 14.9609 18 15.4696 18 16C18 16.5305 17.7892 17.0392 17.4142 17.4142C17.0391 17.7893 16.5304 18 16 18C15.4695 18 14.9608 17.7893 14.5857 17.4142C14.2107 17.0392 14 16.5305 14 16C14 15.4696 14.2107 14.9609 14.5857 14.5858C14.9608 14.2107 15.4695 14 16 14ZM25.3333 14C25.8637 14 26.3724 14.2107 26.7475 14.5858C27.1226 14.9609 27.3333 15.4696 27.3333 16C27.3333 16.5305 27.1226 17.0392 26.7475 17.4142C26.3724 17.7893 25.8637 18 25.3333 18C24.8029 18 24.2942 17.7893 23.9191 17.4142C23.544 17.0392 23.3333 16.5305 23.3333 16C23.3333 15.4696 23.544 14.9609 23.9191 14.5858C24.2942 14.2107 24.8029 14 25.3333 14ZM6.66663 14C7.19706 14 7.70577 14.2107 8.08084 14.5858C8.45591 14.9609 8.66663 15.4696 8.66663 16C8.66663 16.5305 8.45591 17.0392 8.08084 17.4142C7.70577 17.7893 7.19706 18 6.66663 18C6.13619 18 5.62749 17.7893 5.25241 17.4142C4.87734 17.0392 4.66663 16.5305 4.66663 16C4.66663 15.4696 4.87734 14.9609 5.25241 14.5858C5.62749 14.2107 6.13619 14 6.66663 14ZM16 4.66669C16.5304 4.66669 17.0391 4.8774 17.4142 5.25247C17.7892 5.62755 18 6.13625 18 6.66669C18 7.19712 17.7892 7.70583 17.4142 8.0809C17.0391 8.45597 16.5304 8.66669 16 8.66669C15.4695 8.66669 14.9608 8.45597 14.5857 8.0809C14.2107 7.70583 14 7.19712 14 6.66669C14 6.13625 14.2107 5.62755 14.5857 5.25247C14.9608 4.8774 15.4695 4.66669 16 4.66669ZM25.3333 4.66669C25.8637 4.66669 26.3724 4.8774 26.7475 5.25247C27.1226 5.62755 27.3333 6.13625 27.3333 6.66669C27.3333 7.19712 27.1226 7.70583 26.7475 8.0809C26.3724 8.45597 25.8637 8.66669 25.3333 8.66669C24.8029 8.66669 24.2942 8.45597 23.9191 8.0809C23.544 7.70583 23.3333 7.19712 23.3333 6.66669C23.3333 6.13625 23.544 5.62755 23.9191 5.25247C24.2942 4.8774 24.8029 4.66669 25.3333 4.66669ZM6.66663 4.66669C7.19706 4.66669 7.70577 4.8774 8.08084 5.25247C8.45591 5.62755 8.66663 6.13625 8.66663 6.66669C8.66663 7.19712 8.45591 7.70583 8.08084 8.0809C7.70577 8.45597 7.19706 8.66669 6.66663 8.66669C6.13619 8.66669 5.62749 8.45597 5.25241 8.0809C4.87734 7.70583 4.66663 7.19712 4.66663 6.66669C4.66663 6.13625 4.87734 5.62755 5.25241 5.25247C5.62749 4.8774 6.13619 4.66669 6.66663 4.66669Z"
    fill="white" fill-opacity="0.8" />
</svg>