<svg viewBox="0 0 24 24" fill="none" xmlns="http://www.w3.org/2000/svg">
<path d="M10.9029 3.79199C10.3646 4.21714 9.864 4.61485 9.792 4.67657L9.65487 4.78625L9.912 4.98857C10.0526 5.1017 10.1897 5.21141 10.2172 5.23541C10.2446 5.25941 10.6389 5.57141 11.088 5.93141L11.9074 6.58285L12.0309 6.49028C12.0994 6.43886 12.576 6.05828 13.0937 5.64685C13.608 5.23541 14.0606 4.87885 14.0949 4.85828C14.1326 4.83428 14.16 4.80685 14.16 4.79312C14.16 4.78285 13.9337 4.59085 13.656 4.37485C13.3749 4.15541 13.1246 3.95657 13.0971 3.93257C12.7234 3.62741 11.9314 3.01712 11.9075 3.01712C11.8937 3.02057 11.4411 3.36685 10.9029 3.79199ZM16.3714 8.01941C11.8937 11.5611 11.928 11.5337 11.8457 11.4823C11.7737 11.4377 11.5749 11.2834 10.344 10.3097C10.1314 10.1417 9.90858 9.96341 9.84343 9.91541C9.77827 9.86399 9.63772 9.75428 9.53143 9.66857C9.42174 9.58285 9.28114 9.47312 9.21943 9.4217C8.91087 9.1817 7.55314 8.10857 6.82629 7.53599C6.68914 7.42628 6.55887 7.33712 6.54172 7.33712C6.52458 7.33712 6.28458 7.51885 6.01029 7.73828C5.73601 7.96112 5.47887 8.16685 5.44114 8.19428C5.40001 8.2217 5.32114 8.28686 5.26629 8.33828C5.21145 8.39312 5.15314 8.43428 5.13943 8.43428C5.06743 8.43428 5.12229 8.50628 5.29029 8.63999C5.38629 8.71541 5.49601 8.80112 5.52687 8.82857C5.55772 8.85257 5.76687 9.01712 5.98972 9.19199C6.21256 9.36686 6.53487 9.62057 6.70287 9.75425C7.15545 10.1109 7.45029 10.3474 9.69943 12.1234C10.8206 13.008 11.7806 13.7589 11.8286 13.7897C11.9143 13.848 11.9212 13.848 12.0034 13.7829C12.1301 13.6847 12.2558 13.5852 12.3806 13.4846C12.5417 13.3577 12.7269 13.2103 12.792 13.1589C13.4983 12.6034 14.6674 11.6811 14.7086 11.6469C14.736 11.6229 15 11.4171 15.2914 11.1874C15.5828 10.9577 16.1794 10.4914 16.6114 10.1486C17.0469 9.8057 17.6949 9.29486 18.0583 9.01028C18.4217 8.7257 18.7097 8.48228 18.7029 8.46512C18.6823 8.4377 17.352 7.36112 17.2971 7.3337C17.28 7.32341 16.8617 7.63199 16.3714 8.01941Z" fill="#1E80FF"/>
<path d="M1.35772 11.4686C1.00112 11.7566 0.689122 12.0171 0.6617 12.0446C0.606856 12.096 0.534856 12.0343 2.53712 13.6114C3.31541 14.2251 3.3017 14.2149 3.88799 14.6777C4.13141 14.8697 4.73828 15.3497 5.24228 15.744C6.13712 16.4503 6.29486 16.5737 6.47657 16.7177C6.52457 16.7589 7.01486 17.1429 7.56341 17.5749C8.10857 18.0069 9.3017 18.9463 10.2103 19.6629C11.1223 20.3794 11.8766 20.9691 11.8937 20.976C11.9109 20.9829 12.0685 20.8731 12.2434 20.7326C12.7543 20.3348 14.3589 19.0697 14.6229 18.8606C14.7566 18.7543 14.9246 18.6206 14.9966 18.5657C15.0686 18.5074 15.1474 18.4457 15.168 18.4286C15.1886 18.408 15.4457 18.2057 15.7371 17.976C16.224 17.5989 17.1223 16.8926 17.2457 16.7897C17.2731 16.7657 17.3657 16.6937 17.4514 16.6286C17.5371 16.5634 17.6366 16.4812 17.6743 16.4503C17.712 16.4194 18.0206 16.176 18.36 15.9086C19.0423 15.3737 19.3509 15.1303 20.4343 14.2766C20.8389 13.9577 21.1954 13.68 21.2229 13.656C21.2811 13.608 21.96 13.0731 22.2686 12.8297C22.3817 12.744 22.4811 12.6617 22.4914 12.6514C22.5017 12.6377 22.632 12.5383 22.7829 12.4217C22.9337 12.3086 23.0914 12.1817 23.136 12.144L23.2149 12.0754L22.9817 11.8937C22.8549 11.7909 22.7417 11.7017 22.7314 11.6914C22.704 11.6606 22.2069 11.2594 22.0251 11.1223C21.9325 11.0503 21.8537 10.9817 21.8469 10.9646C21.816 10.8926 21.6891 10.968 21.1611 11.3863C20.8457 11.6331 20.5577 11.8594 20.52 11.8903C20.4823 11.9246 20.2731 12.0857 20.0571 12.2571C19.8411 12.4251 19.656 12.5726 19.6457 12.5829C19.6354 12.5931 19.4914 12.7097 19.32 12.84C19.152 12.9703 18.9634 13.1143 18.9051 13.1623C18.7886 13.2583 18.7783 13.2652 18.4286 13.5429C18.2983 13.6457 18.1646 13.7486 18.1371 13.7726C18.1097 13.7966 17.6606 14.1497 17.1429 14.5543C16.6251 14.9623 16.1691 15.3223 16.1314 15.3531C16.0937 15.3874 15.792 15.624 15.4629 15.8811C15.1337 16.1383 14.5063 16.632 14.0674 16.9783C13.632 17.3246 13.0766 17.76 12.8366 17.9486C12.5966 18.1372 12.2914 18.3771 12.1577 18.4834L11.9143 18.6789L11.8114 18.6069C11.7566 18.5657 11.7017 18.5246 11.6914 18.5143C11.6811 18.504 11.5749 18.4183 11.4514 18.3257C11.1737 18.1097 11.112 18.0617 11.0606 18.0171C11.04 17.9966 10.9611 17.9349 10.8857 17.88C10.8103 17.8217 10.7417 17.7703 10.7314 17.76C10.7211 17.7497 10.5703 17.6263 10.392 17.4857C10.2137 17.3486 10.0423 17.2149 10.0149 17.1909C9.98399 17.1634 9.6137 16.872 9.18857 16.5394C8.76686 16.2068 8.3657 15.8914 8.29712 15.84C8.16341 15.7303 7.51199 15.216 5.3657 13.5257C4.55657 12.888 3.6617 12.1817 3.37712 11.9589C2.21141 11.0331 2.08454 10.9371 2.04341 10.9406C2.02286 10.9406 1.7143 11.1806 1.35772 11.4686Z" fill="#1E80FF"/>
</svg>
