<svg width="32" height="32" viewBox="0 0 32 32" fill="none" xmlns="http://www.w3.org/2000/svg">
<path d="M16.7871 25.1805L19.2712 5.43959C19.2712 5.43959 20.784 8.88398 23.2314 10.4687C24.773 11.4567 26.829 11.3262 27.5027 12.2828C27.9505 12.9308 27.5598 15.0458 27.3963 15.8504C27.3924 15.8811 27.4365 15.9022 27.4557 15.8735C27.8127 15.0154 28.815 12.4947 28.4095 11.634C27.8663 10.507 25.575 10.1564 24.089 9.09747C22.2008 7.77001 20.6141 3.42884 19.8024 2.57937C19.5535 2.33007 19.1703 2.28186 18.9538 2.27018C18.107 2.19476 17.3344 2.76702 17.2283 3.61L14.5494 24.899L16.7871 25.1805Z" fill="url(#paint0_linear_50_582)" fill-opacity="0.8"/>
<path d="M2.99684 23.4141C2.9082 24.1185 2.99881 24.8385 3.26353 25.533C3.52824 26.2275 3.96186 26.8827 4.53963 27.4615C5.1174 28.0402 5.828 28.531 6.63087 28.9059C7.43374 29.2808 8.31314 29.5324 9.21888 29.6464C10.1246 29.7603 11.0389 29.7344 11.9097 29.5702C12.7804 29.4059 13.5904 29.1064 14.2936 28.6889C14.9967 28.2713 15.5791 27.7439 16.0077 27.1367C16.4362 26.5294 16.7023 25.8543 16.791 25.1499C16.97 23.7271 16.4151 22.2713 15.2482 21.1025C14.0813 19.9337 12.3982 19.1478 10.5689 18.9176C8.73973 18.6874 6.91431 19.0318 5.49427 19.8751C4.07422 20.7183 3.17587 21.9913 2.99684 23.4141Z" fill="url(#paint1_linear_50_582)" fill-opacity="0.8"/>
<defs>
<linearGradient id="paint0_linear_50_582" x1="18.6464" y1="9.25256" x2="31.9512" y2="16.32" gradientUnits="userSpaceOnUse">
<stop stop-color="var(--color-brand)"/>
<stop offset="1" stop-color="var(--color-brand-secondary)"/>
</linearGradient>
<linearGradient id="paint1_linear_50_582" x1="5.63449" y1="21.5993" x2="14.3508" y2="31.8549" gradientUnits="userSpaceOnUse">
<stop stop-color="var(--color-brand)"/>
<stop offset="1" stop-color="var(--color-brand-secondary)"/>
</linearGradient>
</defs>
</svg>
