<svg width="24" height="24" viewBox="0 0 24 24" fill="none" xmlns="http://www.w3.org/2000/svg">
<path d="M14.1004 11.9716C14.1956 10.1578 13.7327 8.24439 12.5872 7.04993C10.5518 4.91676 9.21179 3.11757 7.99024 1.55735C7.54635 0.990703 6.6967 0.798372 5.89564 1.25292C5.09458 1.70961 4.85159 2.51922 5.0841 3.20425C5.63777 4.83428 6.52972 6.95049 7.45336 9.95483C7.93943 11.5277 9.18858 12.8427 10.8984 13.8828L14.1004 11.9716ZM9.78251 5.37334C9.83531 5.44736 9.85225 5.53832 9.83111 5.63131C9.81074 5.72489 9.75559 5.80724 9.67682 5.86172C9.60284 5.91253 9.51829 5.93792 9.43379 5.93371C9.41108 5.93369 9.38842 5.93154 9.36611 5.92729C9.28581 5.91036 9.21821 5.8639 9.17164 5.80043L6.82987 2.5721C6.72212 2.41995 6.76648 2.19789 6.93349 2.07958C7.02645 2.01825 7.13841 1.9929 7.24203 2.01611C7.32191 2.03176 7.3929 2.07709 7.4407 2.14297L9.78254 5.37334H9.78251Z" fill="white"/>
<path d="M11.5727 15.162C11.6404 15.2846 11.7587 15.3627 11.8919 15.3924C12.025 15.422 12.173 15.4008 12.304 15.3226L14.6923 13.8977C14.9586 13.7455 15.06 13.4263 14.9227 13.1832C14.7811 12.9399 14.4556 12.8681 14.1893 13.0203L11.801 14.4495C11.5347 14.5996 11.4311 14.9189 11.5727 15.162Z" fill="white"/>
<path d="M6.63353 23C6.40023 23 6.21228 22.6438 6.21228 22.2014C6.21228 21.7632 6.40023 21.4026 6.63353 21.4026H13.9281C14.1593 21.4026 14.3472 21.759 14.3472 22.2014C14.3472 22.6438 14.1593 23 13.9281 23H6.63353Z" fill="white"/>
<path d="M12.9237 19.6426C13.7727 21.0937 16.7472 20.6514 17.9913 22.7821L18.2073 22.6581L16.3065 19.4011C15.8594 19.4717 15.3711 19.2431 15.1054 18.79C14.775 18.2215 14.9197 17.5205 15.436 17.2277C15.9501 16.9349 16.6348 17.1572 16.9675 17.7278C17.2418 18.1958 17.1856 18.7494 16.8746 19.0956L18.7668 22.3397L19.0044 22.205C17.7623 20.0743 19.6309 17.7514 18.7841 16.2981C17.9266 14.832 16.0775 14.6589 14.4617 15.5821C12.8416 16.5054 12.0554 18.1531 12.9237 19.6426Z" fill="white"/>
</svg>
