<svg viewBox="0 0 32 32" fill="none" xmlns="http://www.w3.org/2000/svg">
  <path
    d="M16.863 13.4589C15.9323 13.4589 15.1771 14.2182 15.1771 15.1489C15.1771 16.0796 15.9364 16.8389 16.863 16.8389C17.7896 16.8389 18.5489 16.0796 18.5489 15.1489C18.553 14.2182 17.7937 13.4589 16.863 13.4589ZM16.863 16.2306C16.263 16.2306 15.7813 15.7449 15.7813 15.1448C15.7813 14.5448 16.267 14.059 16.863 14.059C17.4631 14.059 17.9448 14.5448 17.9448 15.1448C17.9488 15.7449 17.4631 16.2306 16.863 16.2306Z"
    fill="currentColor" />
  <path
    d="M28.7378 14.1039C28.252 13.4017 27.5295 12.9364 26.7008 12.7894L21.7779 11.8995C21.3697 8.45835 18.4183 5.81317 14.9322 5.81317C11.4135 5.81317 8.44583 8.50734 8.07844 11.9812C5.04955 12.7813 2.95544 15.4918 2.95544 18.6513C2.95544 22.366 5.97209 25.4561 9.67861 25.5459C9.69086 25.5459 9.7031 25.55 9.71943 25.55C9.8868 25.55 10.0215 25.4112 10.0215 25.2479C10.0215 25.0846 9.8868 24.9499 9.72351 24.9458C6.32315 24.8805 3.55959 22.0516 3.55959 18.6554C3.55959 15.7081 5.5598 13.1813 8.4295 12.5241C8.55604 12.4914 8.65401 12.3853 8.66626 12.2547C8.9071 8.98494 11.6625 6.42548 14.9363 6.42548C18.0591 6.42548 20.7043 8.74818 21.1574 11.7893L16.4508 10.9362C15.6221 10.7892 14.7771 10.9729 14.0791 11.4546C13.6709 11.7363 13.3402 12.1036 13.1075 12.5241L10.495 13.214C9.68677 13.463 9.02548 14.014 8.62544 14.7651C8.22539 15.5162 8.14375 16.3776 8.39684 17.1817L10.6134 24.407C11.0339 25.7745 12.2993 26.6562 13.6464 26.6562C13.9485 26.6562 14.2505 26.6113 14.5526 26.5174L18.5285 25.5051C18.5653 25.4928 18.602 25.4806 18.6347 25.4642L24.223 26.4766C24.4108 26.5133 24.6026 26.5297 24.7904 26.5297C25.4313 26.5297 26.0559 26.3337 26.5906 25.9623C27.2887 25.4765 27.7581 24.754 27.905 23.9212L29.2521 16.4878C29.4113 15.6469 29.2276 14.8019 28.7378 14.1039ZM14.222 25.3499C13.1892 25.6683 12.087 25.0846 11.7645 24.0478L9.54798 16.8225C9.39287 16.3204 9.44593 15.7938 9.69086 15.3285C9.93578 14.8631 10.344 14.5202 10.8216 14.3774L12.6871 13.8875L11.4135 20.9332C11.2665 21.7659 11.4461 22.6068 11.9319 23.3089C12.4177 24.011 13.1402 24.4764 13.9689 24.6233L15.7976 24.9581L14.222 25.3499ZM26.7212 23.7008C26.6274 24.2111 26.3375 24.6642 25.9089 24.9662C25.4721 25.2683 24.9578 25.3826 24.4394 25.2887L14.1893 23.4232C13.679 23.3293 13.2259 23.0395 12.9279 22.6109C12.6259 22.1741 12.5116 21.6516 12.6055 21.1413L12.7238 20.4882L16.1119 19.0636L18.8878 21.8435C18.9449 21.9006 19.0225 21.9292 19.1041 21.9292C19.149 21.9292 19.2021 21.9169 19.247 21.8924L26.1538 18.19L27.3825 20.0637L26.7212 23.7008ZM28.0683 16.2592L27.5377 19.1983L26.5049 17.6267C26.4192 17.492 26.2477 17.4511 26.1089 17.5246L19.1572 21.2475L16.3977 18.4839C16.312 18.3982 16.1773 18.3696 16.063 18.4186L12.8463 19.7698L13.9485 13.6997C14.0423 13.1895 14.3322 12.7364 14.7608 12.4343C15.1976 12.1322 15.7119 12.0179 16.2303 12.1118L26.4845 13.9691C26.9947 14.063 27.4479 14.3529 27.7458 14.7815C28.0479 15.2264 28.1622 15.7489 28.0683 16.2592Z"
    fill="currentColor" />
</svg>