<svg viewBox="0 0 28 28" fill="none" xmlns="http://www.w3.org/2000/svg">
  <path
    d="M10.1711 5.15563C10.5693 5.15563 10.9109 5.29141 11.1959 5.56299C11.481 5.83456 11.6211 6.16676 11.6211 6.562V12.2311C11.6211 12.6239 11.481 12.961 11.1959 13.2423C10.9109 13.5235 10.5717 13.6617 10.1711 13.6617H4.42538C4.02726 13.6617 3.69057 13.5235 3.41287 13.2423C3.13762 12.961 3 12.6264 3 12.2311V6.562C3 6.16918 3.13762 5.83699 3.41287 5.56299C3.68811 5.29141 4.0248 5.15563 4.42538 5.15563H10.1711ZM10.1711 16.4939C10.5693 16.4939 10.9109 16.6297 11.1959 16.9012C11.481 17.1728 11.6211 17.505 11.6211 17.9003V23.5936C11.6211 23.9864 11.481 24.3186 11.1959 24.5926C10.9109 24.8642 10.5717 25 10.1711 25H4.42538C4.02726 25 3.69057 24.8642 3.41287 24.5926C3.13517 24.3211 3 23.9889 3 23.5936V17.9003C3 17.5074 3.13762 17.1752 3.41287 16.9012C3.68811 16.6272 4.0248 16.4939 4.42538 16.4939H10.1711ZM21.6848 16.4939C22.0829 16.4939 22.4196 16.6297 22.6973 16.9012C22.9725 17.1728 23.1101 17.505 23.1101 17.9003V23.5936C23.1101 23.9864 22.9725 24.3186 22.6973 24.5926C22.422 24.8642 22.0853 25 21.6848 25H15.9415C15.5433 25 15.2017 24.8642 14.9167 24.5926C14.6316 24.3211 14.4915 23.9889 14.4915 23.5936V17.9003C14.4915 17.5074 14.6316 17.1752 14.9167 16.9012C15.2017 16.6297 15.5409 16.4939 15.9415 16.4939H21.6848ZM24.5404 7.6483C24.8476 7.95139 25 8.30541 25 8.71277C25 9.12014 24.8476 9.4693 24.5404 9.75785L20.2643 13.977C19.9571 14.2801 19.6032 14.4304 19.1977 14.4304C18.7922 14.4304 18.4359 14.2801 18.1311 13.977L13.855 9.75785C13.5626 9.4693 13.4176 9.12256 13.4176 8.71277C13.4176 8.30541 13.5626 7.94897 13.855 7.6483L18.1287 3.43161C18.4359 3.14306 18.7898 3 19.1953 3C19.6008 3 19.9571 3.14306 20.2618 3.43161L24.5404 7.6483Z"
    fill="currentColor" />
</svg>