<svg viewBox="0 0 28 28" fill="none" xmlns="http://www.w3.org/2000/svg">
  <path
    d="M4.42578 17.4941H10.1709C10.3152 17.4941 10.4091 17.533 10.5059 17.625C10.5894 17.7046 10.6211 17.774 10.6211 17.9004V23.5938C10.6211 23.7144 10.5911 23.7852 10.5059 23.8682C10.4084 23.961 10.317 24 10.1709 24H4.42578C4.28278 24 4.19856 23.9622 4.1123 23.8779C4.03494 23.8023 4.00002 23.7311 4 23.5938V17.9004C4 17.7712 4.03341 17.6948 4.11816 17.6104C4.19552 17.5333 4.27446 17.4941 4.42578 17.4941ZM15.9414 17.4941H21.6846C21.7919 17.4941 21.8659 17.5153 21.9326 17.5615L21.998 17.6162C22.0766 17.6947 22.1104 17.7687 22.1104 17.9004V23.5938C22.1103 23.7213 22.0777 23.7976 21.9951 23.8809C21.9137 23.9611 21.8319 24 21.6846 24H15.9414C15.7969 24 15.7033 23.9604 15.6064 23.8682C15.5231 23.7887 15.4912 23.72 15.4912 23.5938V17.9004C15.4912 17.7795 15.521 17.7081 15.6064 17.625C15.7038 17.5323 15.7955 17.4942 15.9414 17.4941ZM19.1953 4C19.3024 4.00001 19.3919 4.02316 19.4824 4.08398L19.5742 4.1582L23.8379 8.35938V8.36035C23.9663 8.48708 24 8.58907 24 8.71289C24 8.83655 23.967 8.92455 23.8555 9.0293L23.8467 9.03711L23.8379 9.0459L19.5615 13.2646C19.4284 13.396 19.322 13.4307 19.1973 13.4307C19.0704 13.4306 18.9634 13.3944 18.8359 13.2676L18.833 13.2646L14.5576 9.0459C14.4554 8.94501 14.418 8.85467 14.418 8.71289C14.418 8.60615 14.4405 8.51908 14.5 8.43262L14.5723 8.3457L18.8193 4.15527C18.9464 4.03784 19.0568 4 19.1953 4ZM4.42578 6.15527H10.1709C10.3153 6.15527 10.4091 6.19496 10.5059 6.28711C10.5893 6.36657 10.621 6.43543 10.6211 6.56152V12.2314C10.621 12.3552 10.5887 12.436 10.4932 12.5303C10.3965 12.6256 10.3102 12.6621 10.1709 12.6621H4.42578C4.29091 12.6621 4.21169 12.6278 4.12695 12.543H4.12793C4.03461 12.4476 4.00006 12.3636 4 12.2314V6.56152L4.00684 6.47363C4.02005 6.39506 4.05347 6.33664 4.11523 6.27441C4.19654 6.19427 4.2786 6.15527 4.42578 6.15527Z"
    stroke="currentColor" stroke-width="1.5" />
</svg>