<svg viewBox="0 0 1024 1024" version="1.1" xmlns="http://www.w3.org/2000/svg"
  xmlns:xlink="http://www.w3.org/1999/xlink">
  <path
    d="M619.45679 875.005291c-35.216931 0-66.821869 0.902998-92.10582 3.611993-25.283951-2.708995-56.888889-3.611993-92.10582-3.611993-102.038801 0-193.241623 38.828924-193.241623 67.724868 0 27.992945 75.851852 24.380952 176.987655 23.477954 40.634921 0 78.560847-4.514991 109.262786-11.738977 29.798942 6.320988 66.821869 10.835979 106.553792 10.835979 102.038801 0.902998 176.987654 4.514991 176.987654-23.477955s-90.299824-66.821869-192.338624-66.821869z m0 0"
    fill="#F0AB1B"></path>
  <path
    d="M873.199295 596.881834c-18.962963-52.373898-40.634921-103.844797-63.209877-154.412698 0.902998-12.641975 1.805996-24.380952 1.805996-37.022928C811.795414 211.301587 712.465608 54.179894 523.738977 54.179894S235.68254 211.301587 235.68254 405.446208c0 11.738977 0.902998 23.477954 1.805996 35.216931-23.477954 51.470899-44.246914 103.844797-64.112875 157.121693-39.731922 107.45679-41.537919 204.9806-27.992945 212.204586 9.932981 5.417989 46.05291-32.507937 79.463845-93.008818 22.574956 143.57672 118.292769 251.03351 297.989418 251.033509s275.414462-106.553792 297.989418-250.130511c34.313933 59.597884 69.530864 96.620811 79.463845 91.202822 14.447972-7.223986 12.641975-104.747795-27.089947-212.204586z m0 0"
    fill="#040000"></path>
  <path
    d="M450.59612 167.957672c-27.992945 0.902998-49.664903 33.410935-48.761905 73.142857 0.902998 39.731922 23.477954 71.336861 51.4709 71.336861 27.992945-0.902998 49.664903-33.410935 48.761904-73.142857-0.902998-39.731922-23.477954-71.336861-51.470899-71.336861z m153.5097 0.902998c-27.992945-0.902998-51.470899 30.70194-52.373898 70.433863-0.902998 39.731922 21.671958 72.239859 49.664903 72.239859 27.992945 0.902998 51.470899-30.70194 52.373898-70.433863 0-38.828924-21.671958-71.336861-49.664903-72.239859zM708.853616 487.619048c-54.179894 9.029982-117.389771 14.447972-184.211641 14.447971-65.918871 0-127.322751-5.417989-180.599647-14.447971-37.022928 46.955908-39.731922 114.680776-39.731922 189.629629 0 138.15873 78.560847 250.130511 223.040564 250.130512S750.391534 815.407407 750.391534 677.248677c-0.902998-75.851852-3.611993-143.57672-41.537918-189.629629z m0 0"
    fill="#FFFFFF"></path>
  <path
    d="M526.447972 335.915344c-97.52381 0-176.084656 19.865961-176.084656 35.216931 0 15.35097 102.941799 58.694885 176.084656 58.694885s176.084656-44.246914 176.084656-58.694885c0-14.447972-78.560847-35.216931-176.084656-35.216931z m0 0"
    fill="#F0AB1B"></path>
  <path
    d="M807.280423 438.857143v-0.902998c-71.336861 23.477954-172.472663 37.925926-283.541446 37.925926-111.971781 0-213.107584-14.447972-284.444444-38.828925-15.35097 34.313933-29.798942 67.724868-43.343916 102.941799 44.246914 14.447972 93.008818 26.186949 146.285715 34.313933v130.934745s37.925926 7.223986 73.142857 8.126984c25.283951 0.902998 51.470899-3.611993 51.470899-3.611993V586.948854c18.059965 0.902998 37.022928 0.902998 55.985891 0.902998 122.80776 0 235.68254-18.059965 326.885361-47.858907-12.641975-33.410935-27.089947-66.821869-42.440917-101.135802z m0 0"
    fill="#DB2921"></path>
  <path
    d="M466.850088 218.525573c-12.641975 0-22.574956 12.641975-22.574956 28.895944 0 16.253968 9.932981 28.895944 22.574956 28.895943s22.574956-12.641975 22.574956-28.895943c0-16.253968-9.932981-28.895944-22.574956-28.895944z m162.539683 18.059965s-9.029982-10.835979-31.604939-8.126984c-21.671958 2.708995-30.70194 15.35097-32.507936 17.156966 0 0-5.417989 7.223986-1.805997 11.738977 3.611993 4.514991 10.835979-2.708995 10.835979-2.708994s9.932981-12.641975 23.477954-12.641976 20.768959 5.417989 20.76896 5.41799 6.320988 4.514991 10.835979 0c4.514991-5.417989 0-10.835979 0-10.835979z m0 0"
    fill="#040000"></path>
</svg>