<svg viewBox="0 0 28 28" fill="none" xmlns="http://www.w3.org/2000/svg">
  <path
    d="M24.7333 5.91111C24.5778 4.35555 23.6444 3.57777 22.0889 3.57777H8.39997C6.68886 3.57777 5.28886 4.82222 5.28886 6.68889V20.0667H3.11108V21.6222C3.11108 23.4889 4.35553 24.5778 6.06664 24.5778H19.2889C19.6 24.5778 20.0666 24.4222 20.3778 24.4222C21.4666 23.9556 22.0889 23.0222 22.0889 21.6222V10.5778V10.1111H24.5778C24.7333 8.55555 24.8889 7.15555 24.7333 5.91111ZM17.4222 23.0222H6.2222C5.13331 23.0222 4.51108 22.4 4.51108 21.4667V21.3111H17.1111C17.2666 21.9333 17.4222 22.4 17.5778 23.0222H17.4222ZM8.39997 13.8444C8.39997 13.3778 8.71108 13.2222 9.17775 13.2222H13.5333C14 13.2222 14.3111 13.5333 14.3111 13.8444C14.3111 14.3111 14 14.6222 13.5333 14.6222H9.0222C8.71108 14.4667 8.39997 14.3111 8.39997 13.8444ZM18.0444 10.7333H9.0222C8.55553 10.7333 8.24442 10.4222 8.24442 10.1111C8.39997 9.64444 8.55553 9.33333 9.0222 9.33333H18.0444C18.6666 9.33333 19.1333 9.64444 19.1333 10.1111C19.1333 10.4222 18.8222 10.7333 18.0444 10.7333ZM23.3333 8.55555H22.2444V5.75555C22.2444 5.44444 22.5555 5.28889 22.7111 5.28889C23.0222 5.28889 23.1777 5.6 23.1777 5.75555V8.55555H23.3333Z"
    fill="currentColor" />
</svg>