<svg viewBox="0 0 28 28" fill="none" xmlns="http://www.w3.org/2000/svg">
  <path
    d="M8.40015 4.32776H22.0886C22.7458 4.32776 23.1728 4.4913 23.4441 4.72717C23.7107 4.95909 23.9229 5.34448 23.9871 5.98596L23.988 5.99475L23.989 6.00452C24.1109 6.97988 24.0248 8.07279 23.8982 9.36096H21.3386V21.6227C21.3386 22.2105 21.2087 22.6492 21.0056 22.9742C20.8221 23.2678 20.5547 23.5048 20.1902 23.6813C20.0006 23.6993 19.8133 23.7389 19.6863 23.7643C19.4666 23.8082 19.3538 23.8278 19.2888 23.8278H6.06616C5.36989 23.8277 4.82939 23.6079 4.46753 23.2594C4.11023 22.9153 3.86119 22.3826 3.86108 21.6227V20.817H6.03882V6.68909C6.03882 5.26122 7.07822 4.32776 8.40015 4.32776Z"
    stroke="currentColor" stroke-width="1.5" />
  <path
    d="M9.02216 10.7333H18.0444C18.8222 10.7333 19.1333 10.4222 19.1333 10.1111C19.1333 9.64442 18.6666 9.33331 18.0444 9.33331H9.02216C8.5555 9.33331 8.24435 9.64161 8.24438 10.1111C8.24441 10.4222 8.5555 10.7333 9.02216 10.7333Z"
    fill="currentColor" />
  <mask id="path-3-inside-1_91_114" fill="white">
    <path
      d="M9.17768 13.2222C8.71101 13.2222 8.3999 13.3778 8.3999 13.8445C8.3999 14.3712 8.49988 14.5 9.02212 14.6222H13.5332C13.9999 14.6222 14.311 14.3111 14.311 13.8445C14.311 13.5333 13.9999 13.2222 13.5332 13.2222H9.17768Z" />
  </mask>
  <path
    d="M9.02212 14.6222L8.68033 16.0828L8.84895 16.1222H9.02212V14.6222ZM8.3999 13.8445H9.8999C9.8999 13.8921 9.89202 14.0156 9.82136 14.1711C9.74595 14.3369 9.62633 14.4785 9.48565 14.5789C9.24362 14.7518 9.05944 14.7222 9.17768 14.7222V13.2222V11.7222C8.82925 11.7222 8.25618 11.7704 7.74193 12.1377C7.12683 12.5771 6.8999 13.2412 6.8999 13.8445H8.3999ZM9.17768 13.2222V14.7222H13.5332V13.2222V11.7222H9.17768V13.2222ZM13.5332 13.2222V14.7222C13.4294 14.7222 13.2721 14.6852 13.1209 14.5556C12.9809 14.4355 12.811 14.1959 12.811 13.8445H14.311H15.811C15.811 12.4963 14.6031 11.7222 13.5332 11.7222V13.2222ZM14.311 13.8445H12.811C12.811 13.7369 12.8534 13.5307 13.0365 13.3477C13.2195 13.1646 13.4257 13.1222 13.5332 13.1222V14.6222V16.1222C14.1074 16.1222 14.7025 15.9243 15.1578 15.469C15.6131 15.0137 15.811 14.4187 15.811 13.8445H14.311ZM13.5332 14.6222V13.1222H9.02212V14.6222V16.1222H13.5332V14.6222ZM9.02212 14.6222L9.36392 13.1617C9.26457 13.1384 9.27247 13.1337 9.3233 13.1568C9.38983 13.1869 9.54561 13.2711 9.68844 13.4504C9.83182 13.6304 9.87982 13.8028 9.89481 13.8781C9.90621 13.9353 9.8999 13.9448 9.8999 13.8445H8.3999H6.8999C6.8999 14.093 6.89299 14.756 7.3419 15.3196C7.78831 15.88 8.43324 16.0249 8.68033 16.0828L9.02212 14.6222Z"
    fill="currentColor" mask="url(#path-3-inside-1_91_114)" />
  <path d="M6.19995 20.82H17.7L18.7 24.1" stroke="currentColor" stroke-width="1.5" />
  <path
    d="M20.5901 9.49904C20.5896 9.91326 20.9249 10.2495 21.3391 10.25C21.7534 10.2505 22.0896 9.91516 22.0901 9.50095L21.3401 9.5L20.5901 9.49904ZM21.3401 5.94501L20.5901 5.94647L20.5901 5.94647L21.3401 5.94501ZM21.3401 9.5C22.0901 9.50095 22.0901 9.50094 22.0901 9.50092C22.0901 9.5009 22.0901 9.50088 22.0901 9.50085C22.0901 9.50078 22.0901 9.50068 22.0901 9.50055C22.0901 9.50029 22.0901 9.49989 22.0901 9.49937C22.0901 9.49833 22.0901 9.49677 22.0901 9.49471C22.0901 9.49059 22.0901 9.48446 22.0901 9.4764C22.0901 9.46029 22.0902 9.43648 22.0902 9.40569C22.0903 9.34411 22.0904 9.25457 22.0905 9.14275C22.0907 8.91911 22.0909 8.60628 22.0911 8.24955C22.0915 7.53624 22.0915 6.64675 22.0901 5.94355L21.3401 5.94501L20.5901 5.94647C20.5915 6.64777 20.5915 7.53577 20.5911 8.24883C20.5909 8.60528 20.5907 8.91786 20.5905 9.14132C20.5904 9.25305 20.5903 9.3425 20.5902 9.40401C20.5902 9.43476 20.5901 9.45853 20.5901 9.4746C20.5901 9.48264 20.5901 9.48875 20.5901 9.49286C20.5901 9.49491 20.5901 9.49646 20.5901 9.49749C20.5901 9.49801 20.5901 9.4984 20.5901 9.49866C20.5901 9.49879 20.5901 9.49888 20.5901 9.49895C20.5901 9.49898 20.5901 9.49901 20.5901 9.49902C20.5901 9.49904 20.5901 9.49904 21.3401 9.5ZM21.3401 5.94501L22.0901 5.94355C22.0898 5.81788 22.1174 5.59896 22.2141 5.40767C22.2989 5.23996 22.4321 5.09463 22.6941 5.02443L22.5 4.29999L22.3059 3.57554C21.5679 3.77329 21.1208 4.24557 20.8754 4.73092C20.642 5.1927 20.5895 5.66232 20.5901 5.94647L21.3401 5.94501Z"
    fill="currentColor" />
</svg>