<svg viewBox="0 0 28 28" fill="none" xmlns="http://www.w3.org/2000/svg">
  <path
    d="M7.59057 25.2506C7.30319 25.2506 7.01909 25.1604 6.77627 24.984C6.38061 24.6966 6.16733 24.2342 6.2067 23.7472L6.71666 17.4068L2.57737 12.5768C2.25963 12.206 2.15983 11.707 2.31077 11.2421C2.4617 10.7773 2.83549 10.4322 3.31073 10.3193L9.49889 8.84434L12.813 3.41524C13.0678 2.99825 13.5116 2.74915 13.9999 2.74915C14.4883 2.74915 14.9324 2.99797 15.1867 3.41524H15.1872L18.501 8.84434L24.6892 10.3193C25.1644 10.4322 25.5382 10.7773 25.6894 11.2421C25.8401 11.707 25.7408 12.2057 25.4222 12.577L21.2835 17.407L21.7929 23.7472C21.832 24.2342 21.6193 24.6969 21.2236 24.984C20.829 25.2714 20.3243 25.3307 19.8715 25.142L13.9999 22.6983L8.12705 25.1423C7.95342 25.2148 7.77131 25.2506 7.59057 25.2506ZM14.0002 21.0364C14.181 21.0364 14.3614 21.0722 14.5331 21.1433L20.1244 23.4702L19.6396 17.4344C19.6098 17.0691 19.7304 16.6986 19.9696 16.4186L23.9104 11.8204L18.0198 10.4163C17.6624 10.3318 17.3468 10.103 17.1551 9.78825L13.9999 4.61973L10.8447 9.78825C10.652 10.103 10.3367 10.3316 9.97905 10.4163L4.08975 11.8202L8.02998 16.4183C8.26897 16.6966 8.38955 17.0666 8.3603 17.4336L7.87495 23.47L13.4656 21.1436C13.6382 21.0722 13.8192 21.0364 14.0002 21.0364ZM18.3985 8.81973L18.3996 8.82C18.3996 8.82 18.399 8.82 18.3985 8.81973Z"
    fill="currentColor" />
</svg>