<svg viewBox="0 0 28 28" fill="none" xmlns="http://www.w3.org/2000/svg">
  <path
    d="M7.5907 25.2506C7.30332 25.2506 7.01922 25.1604 6.77641 24.984C6.38074 24.6966 6.16746 24.2342 6.20684 23.7472L6.7168 17.4068L2.5775 12.5768C2.25977 12.206 2.15996 11.707 2.3109 11.2421C2.46184 10.7773 2.83562 10.4322 3.31086 10.3193L9.49902 8.84436L12.8131 3.41526C13.0679 2.99827 13.5117 2.74917 14.0001 2.74917C14.4884 2.74917 14.9325 2.99799 15.1868 3.41526L18.5011 8.84436L24.6893 10.3193C25.1645 10.4322 25.5383 10.7773 25.6895 11.2421C25.8402 11.707 25.7409 12.2057 25.4224 12.5771L21.2836 17.4071L21.793 23.7472C21.8321 24.2342 21.6194 24.6969 21.2237 24.984C20.8292 25.2714 20.3244 25.3307 19.8716 25.1421L14.0001 22.6983L8.12719 25.1423C7.95355 25.2148 7.77144 25.2506 7.5907 25.2506Z"
    fill="currentColor" />
</svg>