<svg viewBox="0 0 28 28" fill="none" xmlns="http://www.w3.org/2000/svg">
  <path
    d="M14 19.6487C14.9147 19.6475 15.8258 19.7602 16.7117 19.9828C16.9713 20.0481 17.1228 20.3144 17.0506 20.5721C16.8991 21.114 16.7294 21.617 16.5448 22.0786C16.1386 23.0917 15.6751 23.8517 15.2081 24.344C14.7428 24.8345 14.3346 25 14 25C13.6672 25 13.2572 24.8345 12.7919 24.344C12.3249 23.8517 11.8637 23.0913 11.4575 22.0764C11.2729 21.6164 11.102 21.113 10.9498 20.5719C10.8774 20.3143 11.0286 20.0479 11.2882 19.9827C12.1554 19.7646 13.065 19.6487 14 19.6487ZM8.60682 21.0494C8.88258 20.8949 9.22264 21.0516 9.31343 21.3544C9.45395 21.8229 9.61484 22.2854 9.79516 22.7403C9.87034 22.9315 9.95075 23.1205 10.0363 23.3071C10.2292 23.7278 9.83762 24.2006 9.41636 24.0087C8.64156 23.6557 7.90964 23.2139 7.23565 22.6918C6.99426 22.5048 6.99425 22.145 7.23557 21.9579C7.6694 21.6216 8.12771 21.3178 8.60682 21.0494ZM18.6875 21.3526C18.7784 21.0501 19.1182 20.8936 19.3939 21.0479C19.8735 21.3161 20.3324 21.6195 20.7666 21.9558C21.008 22.1428 21.008 22.5025 20.7666 22.6895C20.0968 23.2084 19.3696 23.6479 18.6001 23.9999C18.177 24.1934 17.7778 23.712 17.9703 23.2885C18.0516 23.1099 18.1298 22.9265 18.2048 22.7392C18.3856 22.2842 18.5467 21.8214 18.6875 21.3526ZM24.4582 14.8921C24.7501 14.8921 24.981 15.1414 24.9432 15.4309C24.6954 17.3277 23.953 19.1276 22.7903 20.6498C22.6203 20.8725 22.2986 20.8956 22.0807 20.7195C21.3199 20.1048 20.4863 19.5745 19.5959 19.1425C19.39 19.0426 19.2714 18.8201 19.3078 18.5941C19.4794 17.5294 19.5891 16.4557 19.6369 15.3784C19.6489 15.1078 19.8701 14.8921 20.1409 14.8921H24.4582ZM7.85902 14.8921C8.12991 14.8921 8.35106 15.1078 8.36304 15.3785C8.41075 16.4563 8.52044 17.5306 8.69209 18.5959C8.72853 18.8221 8.60972 19.0448 8.4035 19.1446C7.51849 19.5728 6.6855 20.1005 5.9217 20.718C5.70374 20.8942 5.3819 20.8712 5.21178 20.6484C4.04933 19.1264 3.30708 17.3275 3.05916 15.4309C3.02131 15.1414 3.25219 14.8921 3.54415 14.8921H7.85902ZM17.3477 14.8921C17.6298 14.8921 17.8565 15.1255 17.8428 15.4073C17.8023 16.2386 17.7265 17.0402 17.6204 17.8024C17.5791 18.0988 17.2838 18.2852 16.9927 18.2158C16.0322 17.9867 15.0298 17.8657 14 17.8657C12.9917 17.865 11.9876 17.983 11.0082 18.2164C10.7176 18.2857 10.4229 18.0999 10.3813 17.804C10.2741 17.042 10.1979 16.2392 10.1572 15.4073C10.1435 15.1255 10.3702 14.8921 10.6523 14.8921H17.3477ZM5.52883 6.9503C5.52883 6.95061 5.52896 6.9509 5.52919 6.9511C6.39706 7.71205 7.36356 8.35234 8.40231 8.85492C8.60907 8.95496 8.72792 9.17843 8.69113 9.40515C8.52595 10.4231 8.41477 11.5024 8.36466 12.6223C8.35257 12.8926 8.13154 13.1079 7.86097 13.1079H3.54156C3.24971 13.1079 3.01887 12.8587 3.05653 12.5693C3.32533 10.5034 4.1808 8.55286 5.52695 6.94962C5.52759 6.94886 5.52883 6.94931 5.52883 6.9503ZM16.9923 9.78401C17.2835 9.71465 17.5788 9.90151 17.6201 10.198C17.731 10.9928 17.8054 11.7923 17.8437 12.5939C17.8571 12.8753 17.6305 13.1079 17.3488 13.1079H10.6494C10.3675 13.1079 10.1408 12.875 10.1546 12.5934C10.1939 11.7917 10.2697 10.9921 10.3816 10.1973C10.4233 9.90109 10.7184 9.71455 11.0094 9.78389C11.9884 10.0171 12.9922 10.135 14 10.1343C15.0083 10.1352 16.0128 10.0173 16.9923 9.78401ZM22.0806 7.27987C22.2985 7.10356 22.6204 7.12662 22.7905 7.34941C23.9532 8.8721 24.6956 10.6719 24.9432 12.5691C24.981 12.8586 24.7501 13.1079 24.4582 13.1079H20.1396C19.8692 13.1079 19.6483 12.893 19.636 12.6229C19.5848 11.5026 19.4736 10.4229 19.3094 9.40456C19.2729 9.17811 19.3917 8.95506 19.5982 8.85511C20.4835 8.42652 21.3166 7.89792 22.0806 7.27987ZM14 3C14.3346 3 14.7428 3.16547 15.2081 3.656C15.6751 4.14832 16.1368 4.90874 16.5448 5.92365C16.7396 6.41661 16.909 6.91908 17.0524 7.42909C17.1246 7.68625 16.9732 7.95176 16.7142 8.0169C15.8458 8.23524 14.9371 8.35132 14 8.35132C13.0856 8.35246 12.1749 8.23992 11.2894 8.01745C11.0293 7.95212 10.8779 7.68512 10.9505 7.42703C11.1031 6.88497 11.2729 6.38142 11.4575 5.92138C11.8637 4.90832 12.3267 4.1483 12.7919 3.656C13.259 3.16547 13.6672 3 14 3ZM9.39746 4.00062C9.82082 3.8071 10.2214 4.29002 10.0288 4.7138C9.94814 4.89135 9.87027 5.07355 9.79516 5.2597C9.62127 5.69496 9.46032 6.1599 9.31304 6.65037C9.22255 6.95172 8.88404 7.10644 8.6095 6.95272C8.12844 6.68338 7.66903 6.37855 7.23464 6.04228C6.99286 5.85511 6.99264 5.49479 7.23445 5.30768C7.90332 4.79011 8.62929 4.35176 9.39746 4.00062ZM17.969 4.71023C17.7761 4.28665 18.1752 3.80496 18.5984 3.99862C19.3673 4.35045 20.0939 4.78972 20.7632 5.30822C21.0046 5.49522 21.0046 5.85496 20.7632 6.04201C20.3288 6.37872 19.8696 6.6827 19.3898 6.95127C19.1144 7.10544 18.7748 6.94935 18.6847 6.64683C18.5391 6.15819 18.3784 5.69506 18.2037 5.2597C18.1286 5.07223 18.0503 4.88889 17.969 4.71023Z"
    fill="currentColor" />
</svg>