<svg viewBox="0 0 28 28" fill="none" xmlns="http://www.w3.org/2000/svg">
  <path
    d="M3 14C3 11.0826 4.15893 8.28473 6.22183 6.22183C8.28473 4.15893 11.0826 3 14 3C16.9174 3 19.7153 4.15893 21.7782 6.22183C23.8411 8.28473 25 11.0826 25 14C25 16.9174 23.8411 19.7153 21.7782 21.7782C19.7153 23.8411 16.9174 25 14 25C11.0826 25 8.28473 23.8411 6.22183 21.7782C4.15893 19.7153 3 16.9174 3 14ZM11.1422 4.9753C9.91696 5.36296 8.78368 5.99645 7.81164 6.83703C8.42556 7.36654 9.10548 7.81931 9.83759 8.17846C10.0003 7.56914 10.186 6.99972 10.3932 6.47942C10.6142 5.92996 10.8628 5.4204 11.1422 4.9753ZM6.7342 7.93135C5.47871 9.43057 4.72078 11.2833 4.56551 13.2326H9.15153C9.18683 11.9955 9.30808 10.8107 9.503 9.7148C8.49607 9.26344 7.56271 8.66327 6.7342 7.93442V7.93135ZM16.8578 23.0247C18.0831 22.6365 19.2164 22.0025 20.1884 21.1614C19.5734 20.6292 18.8925 20.1784 18.1624 19.82C18.012 20.3971 17.8264 20.9645 17.6068 21.519C17.3873 22.0685 17.1372 22.5765 16.8578 23.0232V23.0247ZM21.2658 20.064C22.5205 18.5661 23.2784 16.7151 23.4345 14.7674H18.85C18.8182 15.9465 18.7002 17.1218 18.497 18.2837C19.51 18.7395 20.4431 19.3427 21.2658 20.0656V20.064ZM23.4345 13.2326C23.2785 11.2844 22.5206 9.43286 21.2658 7.93442C20.4377 8.66312 19.5049 9.26328 18.4985 9.7148C18.6919 10.8107 18.8132 11.9955 18.85 13.2326H23.4345ZM20.1853 6.83703C19.2134 5.99594 18.0801 5.36193 16.8547 4.97377C17.1356 5.42193 17.3858 5.92996 17.6053 6.47942C17.814 7.00126 17.9997 7.56914 18.1593 8.17846C18.8894 7.82006 19.5703 7.36922 20.1853 6.83703ZM11.1422 23.0262C10.8488 22.5473 10.5982 22.0435 10.3932 21.5206C10.1741 20.966 9.98905 20.3986 9.83912 19.8215C9.10906 20.1799 8.42815 20.6308 7.81317 21.163C8.78508 22.0041 9.91837 22.6381 11.1437 23.0262H11.1422ZM6.73573 20.0656C7.56377 19.3369 8.49661 18.7367 9.503 18.2852C9.29966 17.1228 9.18168 15.947 9.14999 14.7674H4.56704C4.72338 16.7158 5.48181 18.5674 6.73727 20.0656H6.73573ZM14 4.53481C13.7145 4.53481 13.3646 4.67755 12.964 5.09962C12.5649 5.52323 12.1674 6.17706 11.819 7.04883C11.6164 7.55532 11.4353 8.1232 11.2788 8.74327C12.1617 9.007 13.0785 9.1404 14 9.13925C14.947 9.13925 15.8602 9.00112 16.7228 8.74327C16.5804 8.16762 16.3999 7.60207 16.1825 7.05037C15.8326 6.17706 15.4366 5.52323 15.036 5.09962C14.6369 4.67755 14.287 4.53481 14 4.53481ZM10.6863 13.2326H17.3137C17.2853 12.2335 17.1915 11.2373 17.0328 10.2505C16.0465 10.5323 15.0257 10.6749 14 10.6741C12.9748 10.6747 11.9545 10.5322 10.9687 10.2505C10.809 11.2372 10.7141 12.2334 10.6848 13.2326H10.6863ZM10.9687 17.7495C11.9545 17.4679 12.9748 17.3253 14 17.3259C15.0513 17.3259 16.0689 17.4733 17.0328 17.7495C17.1832 16.8225 17.2814 15.8203 17.3137 14.7674H10.6863C10.7186 15.8203 10.8168 16.8241 10.9687 17.7495ZM14 18.8608C13.0546 18.8608 12.1398 18.9989 11.2788 19.2567C11.4338 19.8753 11.6164 20.4431 11.819 20.9496C12.1674 21.8229 12.5634 22.4768 12.964 22.9004C13.3631 23.3224 13.7145 23.4652 14 23.4652C14.287 23.4652 14.6369 23.3224 15.036 22.9004C15.4366 22.4768 15.8341 21.8229 16.1825 20.9512C16.3851 20.4431 16.5662 19.8768 16.7212 19.2567C15.8383 18.993 14.9215 18.8596 14 18.8608Z"
    fill="currentColor" />
</svg>