<svg viewBox="0 0 64 64" fill="none" xmlns="http://www.w3.org/2000/svg">
<path fill-rule="evenodd" clip-rule="evenodd" d="M4.70538 41.8524C4.70538 49.1367 14.4108 55.0466 26.3798 55.0466C38.3504 55.0466 48.0541 49.1367 48.0541 41.8524C48.0541 34.5681 38.3487 28.6599 26.3798 28.6599C14.4091 28.6599 4.70538 34.5681 4.70538 41.8524Z" fill="#FEFEFE"/>
<path fill-rule="evenodd" clip-rule="evenodd" d="M26.8859 53.9703C16.2896 54.9928 7.14565 50.3117 6.45587 43.5109C5.76782 36.7136 13.8026 30.3722 24.3936 29.3479C34.9917 28.3236 44.1339 33.0048 44.8254 39.8021C45.51 46.6028 37.4804 52.946 26.8876 53.9703M48.0767 31.3982C47.1738 31.1347 46.555 30.9562 47.0299 29.7968C48.0525 27.2837 48.1564 25.1156 47.049 23.5697C44.9692 20.6667 39.2846 20.8244 32.7698 23.4917C32.7698 23.4899 30.7247 24.3669 31.2481 22.7811C32.2516 19.6303 32.0974 16.9925 30.5393 15.4691C27.0055 12.0115 17.6033 15.5991 9.54255 23.4761C3.5061 29.3808 0 35.6356 0 41.043C0 51.3897 13.5721 57.6774 26.8495 57.6774C44.2552 57.6774 55.8342 47.7952 55.8342 39.9459C55.8342 35.2024 51.7475 32.5108 48.0767 31.3982Z" fill="#D52C2B"/>
<path fill-rule="evenodd" clip-rule="evenodd" d="M59.6349 12.4656C55.4321 7.91095 49.2292 6.17437 43.5065 7.36329C42.1824 7.64059 41.3383 8.9127 41.6208 10.2056C41.9016 11.5002 43.2049 12.3269 44.529 12.0479C48.6018 11.2039 53.0057 12.4396 55.997 15.6753C57.409 17.1947 58.3873 19.0651 58.8299 21.0914C59.2726 23.1177 59.1633 25.2257 58.5135 27.1954C58.0959 28.4553 58.7995 29.8037 60.0907 30.211C61.3784 30.6183 62.7597 29.9302 63.1791 28.672V28.6633C64.0936 25.8935 64.2472 22.9289 63.6237 20.0794C63.0002 17.2299 61.6226 14.6003 59.6349 12.4656Z" fill="#E79115"/>
<path fill-rule="evenodd" clip-rule="evenodd" d="M53.179 18.1606C51.1322 15.9422 48.1131 15.0999 45.3245 15.6788C45.0562 15.731 44.801 15.8362 44.5738 15.9881C44.3466 16.14 44.1518 16.3356 44.001 16.5636C43.8502 16.7915 43.7462 17.0472 43.6952 17.3158C43.6443 17.5843 43.6473 17.8603 43.7041 18.1277C43.9467 19.2369 45.068 19.9527 46.2032 19.71V19.7135C46.8937 19.5675 47.6101 19.6021 48.2832 19.814C48.9563 20.0259 49.5633 20.408 50.0456 20.9232C51.0473 22.0082 51.3159 23.4865 50.8844 24.7829H50.8879C50.804 25.0426 50.7727 25.3164 50.7957 25.5884C50.8187 25.8603 50.8956 26.125 51.0218 26.367C51.1481 26.6089 51.3213 26.8233 51.5313 26.9977C51.7413 27.172 51.9838 27.3029 52.2449 27.3826C53.3541 27.7274 54.543 27.1365 54.9 26.0515C55.3474 24.7028 55.4237 23.2586 55.1209 21.8702C54.8181 20.4819 54.1474 19.2006 53.179 18.1606Z" fill="#E79115"/>
<path fill-rule="evenodd" clip-rule="evenodd" d="M27.4699 41.6548C27.1008 42.2752 26.281 42.5733 25.638 42.3133C25.0072 42.0603 24.8078 41.3688 25.1701 40.7587C25.5375 40.1539 26.3243 39.8575 26.9552 40.1036C27.5947 40.3307 27.8235 41.0308 27.4699 41.6548ZM24.0955 45.8922C23.0678 47.4884 20.8737 48.1886 19.222 47.452C17.5929 46.7276 17.1128 44.8697 18.1371 43.3134C19.1475 41.7587 21.2705 41.069 22.9101 41.7414C24.5704 42.4347 25.099 44.277 24.0955 45.8922ZM27.9431 34.5819C22.9014 33.2977 17.2029 35.7535 15.014 40.0984C12.7835 44.5265 14.9412 49.4434 20.0348 51.0517C25.3087 52.7155 31.5289 50.1644 33.6918 45.3862C35.8235 40.7119 33.1615 35.8991 27.9431 34.5819Z" fill="#060101"/>
</svg>
