<svg width="60" height="60" viewBox="0 0 60 60" fill="none" xmlns="http://www.w3.org/2000/svg">
<path d="M9.08972 45.1047C9.08972 41.9765 11.6429 39.4405 14.7925 39.4405H45.2074C48.3571 39.4405 50.9103 41.9765 50.9103 45.1047C50.9103 48.2329 48.3571 50.7688 45.2074 50.7688H14.7925C11.6429 50.7688 9.08972 48.2329 9.08972 45.1047Z" fill="#66CCFF"/>
<path fill-rule="evenodd" clip-rule="evenodd" d="M10.76 10.8902C12.9871 8.67819 16.5979 8.67819 18.825 10.8902L34.0324 25.9945C36.2596 28.2065 36.2596 31.7928 34.0324 34.0048L18.825 49.1091C16.5979 51.3211 12.9871 51.3211 10.76 49.1091C8.53295 46.8971 8.53295 43.3109 10.76 41.0988L21.2629 30.6672C21.6342 30.2985 21.6342 29.7007 21.2629 29.3321L10.76 18.9004C8.53295 16.6885 8.53295 13.1021 10.76 10.8902Z" fill="#0066FF"/>
<path d="M28.5603 39.4405L18.825 49.1098C16.5979 51.3217 12.9871 51.3217 10.76 49.1098C8.53295 46.8978 8.53295 43.3115 10.76 41.0995L12.4304 39.4405H28.5603Z" fill="#CC66FF"/>
<path d="M45.2071 50.7688C48.3568 50.7688 50.91 48.2329 50.91 45.1047C50.91 41.9765 48.3568 39.4405 45.2071 39.4405C42.0576 39.4405 39.5044 41.9765 39.5044 45.1047C39.5044 48.2329 42.0576 50.7688 45.2071 50.7688Z" fill="#0066FF"/>
</svg>
